<svg width="75" height="96" viewBox="0 0 75 96" fill="none" xmlns="http://www.w3.org/2000/svg">
<g id="Gift Box">
<g id="Mask group">
<mask id="mask0_13_25" style="mask-type:alpha" maskUnits="userSpaceOnUse" x="2" y="20" width="72" height="35">
<path id="Vector 26" d="M2.26318 36.2001V21.7824C2.26318 20.734 3.40666 20.0863 4.30586 20.6253L37.088 40.2756C37.4825 40.5121 37.9703 40.5313 38.3822 40.3265L71.1117 24.0569C72.0243 23.6033 73.091 24.2865 73.0607 25.3052L72.6907 37.7212C72.6748 38.2536 72.3472 38.7269 71.8544 38.9291L34.7643 54.1519C34.3885 54.3062 33.9631 54.2828 33.6064 54.0884L2.96652 37.3846C2.53296 37.1483 2.26318 36.6939 2.26318 36.2001Z" fill="white"/>
</mask>
<g mask="url(#mask0_13_25)">
<g id="Vector 29" filter="url(#filter0_f_13_25)">
<path d="M3.97309 37.5659V22.608L2.44202 20.7236C1.85313 21.9799 0.581123 24.8223 0.204233 26.1414C-0.172657 27.4605 -0.816499 34.7 -1.09131 38.1548L3.97309 37.5659Z" fill="#E6E6E6"/>
</g>
</g>
</g>
<path id="Vector 23" d="M3.03906 59.58V36.8672L34.1166 53.9243L71.2365 38.7966L70.1219 61.6004C70.0738 62.5841 69.4936 63.4635 68.6081 63.8946L35.3011 80.1119C34.4571 80.5229 33.4602 80.4656 32.6688 79.9608L4.28611 61.8547C3.50929 61.3591 3.03906 60.5014 3.03906 59.58Z" fill="#FAFAFA"/>
<g id="Mask group_2">
<mask id="mask1_13_25" style="mask-type:alpha" maskUnits="userSpaceOnUse" x="3" y="36" width="69" height="45">
<path id="Vector 26_2" d="M3.03906 59.58V36.8672L33.7787 53.7388C33.9925 53.8561 34.2478 53.8708 34.4736 53.7788L71.2365 38.7966L70.1219 61.6004C70.0738 62.5841 69.4936 63.4635 68.6081 63.8946L35.3011 80.1119C34.4571 80.5229 33.4602 80.4656 32.6688 79.9608L4.28611 61.8547C3.50929 61.3591 3.03906 60.5014 3.03906 59.58Z" fill="url(#paint0_linear_13_25)"/>
</mask>
<g mask="url(#mask1_13_25)">
<g id="Vector 27" opacity="0.7" filter="url(#filter1_f_13_25)">
<path d="M3.14256 59.3946V34.6547L-2.33545 30.5903L-1.45193 60.4549L31.9469 84.8413L72.0608 65.933V38.8959L68.1731 37.3054L67.1129 62.3987L32.477 79.1865L3.14256 59.3946Z" fill="#C2C2C2"/>
</g>
<g id="Vector 29_2" opacity="0.7" filter="url(#filter2_f_13_25)">
<path d="M7.74119 61.2584V36.5185L2.26318 32.4541L3.14671 62.3187L36.5455 86.7051L76.6595 67.7968V40.7596L72.7718 39.1692L71.7115 64.2625L37.0757 81.0503L7.74119 61.2584Z" fill="#E4E4E4"/>
</g>
<g id="Vector 28" opacity="0.6" filter="url(#filter3_f_13_25)">
<path d="M37.1629 78.1037L36.9106 41.0123C48.7698 33.3586 73.0937 29.5064 74.5067 29.9101C75.9197 30.3138 73.2451 52.1145 71.7311 62.9644L37.1629 78.1037Z" fill="url(#paint1_linear_13_25)"/>
</g>
</g>
</g>
<g id="Vector 49" filter="url(#filter4_f_13_25)">
<path d="M34.002 54.9455C32.1208 54.2893 28.7341 51.6827 27.2758 50.4614L26.8384 49.3677L43.4625 49.9692C41.0928 51.9014 35.8832 55.6017 34.002 54.9455Z" fill="#D9D9D9"/>
</g>
<path id="Vector 25" d="M2.26318 35.7954V21.3776C2.26318 20.3293 3.40666 19.6815 4.30586 20.2205L37.0929 39.8738C37.4847 40.1086 37.9688 40.1292 38.3792 39.9286L70.3925 24.2737C71.3045 23.8277 72.3638 24.511 72.3336 25.5259L71.9633 37.9509C71.9473 38.4872 71.6152 38.963 71.1173 39.1628L34.4062 53.8963C34.2568 53.9562 34.0883 53.9463 33.9469 53.8692L2.96652 36.9799C2.53296 36.7435 2.26318 36.2892 2.26318 35.7954Z" fill="url(#paint2_linear_13_25)"/>
<path id="Vector 24" d="M35.5154 43.6518L2.26923 24.1477C1.32132 23.5916 1.40045 22.1961 2.40515 21.7507L38.1331 5.91269C38.9387 5.55555 39.868 5.61436 40.6222 6.07023L72.0987 25.0956C73.0244 25.6552 72.9482 27.0221 71.9659 27.4752L36.7631 43.7132C36.3622 43.8981 35.8962 43.8752 35.5154 43.6518Z" fill="url(#paint3_linear_13_25)"/>
<g id="Rectangle 6" opacity="0.8" filter="url(#filter5_f_13_25)">
<rect x="31.5469" y="44.0088" width="6.14889" height="34.3982" rx="3.07445" fill="white" fill-opacity="0.9"/>
</g>
<g id="Vector 50" filter="url(#filter6_f_13_25)">
<path d="M3.40771 24.3472L36.3425 43.3222" stroke="white" stroke-width="0.809447" stroke-linecap="round"/>
</g>
<g id="Vector 51" filter="url(#filter7_f_13_25)">
<path d="M36.3428 43.3228L71.091 27.9178" stroke="#EFEFEF" stroke-width="1.07926" stroke-linecap="round"/>
</g>
<g id="Mask group_3">
<mask id="mask2_13_25" style="mask-type:alpha" maskUnits="userSpaceOnUse" x="1" y="0" width="73" height="84">
<path id="Vector 52" d="M2.35239 56.6071C2.35241 59.1052 3.49283 61.2233 3.5472 61.6034L11.0958 67.3599L12.0191 69.6408C14.3724 71.2701 19.557 74.8 21.4686 75.8862C23.3802 76.9724 23.6771 76.9542 23.5866 76.8094L33.8507 83.0005L46.1785 77.787L46.4501 78.3843C47.7896 77.624 51.3377 75.8319 54.8134 74.7457C58.2891 73.6596 59.4477 71.7226 59.5925 70.8899C62.1993 69.2969 67.7712 65.8502 69.2049 64.8075C70.6386 63.7648 70.8885 55.4666 70.8342 51.4478L71.1057 39.9889L72.0289 39.4458C72.3367 37.183 72.9739 31.6364 73.0608 27.5525C73.1477 23.4685 68.8248 20.9632 66.6525 20.221C68.4627 17.8495 70.8233 12.1291 65.7835 8.21899C59.4839 3.33131 48.025 9.52237 43.6804 12.4007C40.7695 10.2718 34.6472 10.3189 31.9499 10.6085C30.7009 8.21899 26.5518 2.90773 19.948 0.778875C11.6932 -1.8822 10.2269 2.84262 8.54339 6.48123C7.19656 9.39211 8.27185 13.8128 8.97785 15.6593C7.54775 16.854 4.31826 19.4173 2.84109 20.1124C1.36393 20.8076 1.28428 22.683 1.4291 23.5338C1.4291 23.5338 1.21191 31.0825 1.21191 33.5807C1.21191 35.5792 2.26186 37.5632 2.78683 38.3055C2.64201 43.5733 2.35238 54.6086 2.35239 56.6071Z" fill="#D9D9D9"/>
</mask>
<g mask="url(#mask2_13_25)">
<path id="Vector 53" d="M12.5931 66.2174C13.3447 68.3468 20.4738 72.2194 23.9445 73.8895C21.5019 72.5743 20.5782 69.4272 20.4216 68.018C20.526 60.3199 20.7817 43.6867 20.9696 38.739C21.1575 33.7913 24.0228 30.6755 25.4319 29.7361L37.6446 24.3343C40.0193 25.7957 45.3166 29.282 47.5086 31.5367C49.7007 33.7913 50.353 38.0605 50.4052 39.9133C50.066 49.3337 49.3875 68.8165 49.3875 71.3843C49.3875 73.9521 47.1433 74.4375 46.0212 74.3592C45.8646 74.6723 46.0212 75.1264 47.9001 74.4375C56.2297 71.6818 58.4687 69.1662 58.547 68.2529C58.8862 60.085 59.5647 42.074 59.5647 35.3727C59.5647 28.6714 55.7548 25.326 53.8498 24.4909L42.5766 21.8292L30.912 20.5766L26.4497 20.3418C23.6314 21.6726 17.4624 24.8041 15.333 26.6829C13.2036 28.5618 12.7235 31.902 12.7496 33.3372C12.3842 43.41 11.8415 64.088 12.5931 66.2174Z" fill="url(#paint4_radial_13_25)"/>
<g id="Vector 60" filter="url(#filter8_f_13_25)">
<path d="M54.9149 36.0619L56.8298 35.5129C57.8694 35.2149 58.899 36.013 58.8696 37.094L58.0845 65.9561C58.0528 67.1218 57.4037 68.1828 56.3802 68.7418C54.1628 69.9528 51.4671 68.3035 51.5359 65.7779L52.2515 39.4978C52.2952 37.8943 53.3729 36.504 54.9149 36.0619Z" fill="#940E17"/>
</g>
<path id="Vector 57" d="M51.9623 18.0676C55.4104 13.4237 60.4436 15.2057 62.5292 16.6771C62.7725 14.9739 62.1955 11.4423 57.9409 10.9418C53.6864 10.4413 45.9026 14.3482 42.5425 16.3643L43.1682 20.4659C44.6165 20.6397 48.4029 20.4034 51.9623 18.0676Z" fill="url(#paint5_linear_13_25)"/>
<path id="Vector 59" d="M19.2015 11.3903C15.6781 11.9324 14.2487 9.22854 13.9745 7.80883C11.6675 7.71202 7.46001 8.951 9.0862 14.6814C12.2321 21.7476 24.3318 19.9568 24.7674 19.9568C25.1158 19.9568 28.3005 20.4731 29.8492 20.7312C30.7527 20.6022 32.2788 19.7149 31.156 17.1981C30.0331 14.6814 25.332 11.116 23.1218 9.64794C22.9121 10.019 21.8344 10.887 19.2015 11.3903Z" fill="url(#paint6_linear_13_25)"/>
</g>
</g>
<g id="Vector 79" filter="url(#filter9_f_13_25)">
<path d="M54.4419 24.784C51.6655 25.2414 45.1348 23.2919 42.2165 22.26C41.8484 21.7013 41.1004 20.5485 41.0531 20.4065C40.9939 20.229 41.7432 18.5924 42.3742 18.7107C43.0052 18.829 54.0475 22.9107 54.4419 24.784Z" fill="#A4121D"/>
</g>
<path id="Vector 56" d="M61.4023 23.8943C57.348 26.4784 46.8297 23.6344 42.0774 21.8893C40.5366 20.5342 39.0366 17.5455 45.3632 16.4316C54.7638 19.4612 60.9381 17.8796 62.8502 16.7101C64.0569 18.0281 65.4566 21.3102 61.4023 23.8943Z" fill="url(#paint7_linear_13_25)"/>
<g id="Mask group_4" filter="url(#filter10_d_13_25)">
<mask id="mask3_13_25" style="mask-type:alpha" maskUnits="userSpaceOnUse" x="12" y="19" width="48" height="56">
<path id="Vector 61" d="M12.5931 66.2168C13.3447 68.3461 20.4738 72.2188 23.9445 73.8889C21.5019 72.5737 20.5782 69.4266 20.4216 68.0174C20.526 60.3193 20.7817 43.686 20.9696 38.7384C21.1575 33.7907 24.0228 30.6749 25.4319 29.7354L37.6446 24.3337C40.0193 25.795 45.3166 29.2814 47.5086 31.536C49.7007 33.7907 50.353 38.0599 50.4052 39.9127C50.066 49.3331 49.3875 68.8159 49.3875 71.3837C49.3875 73.9515 47.1433 74.4369 46.0212 74.3586C45.8646 74.6717 46.0212 75.1258 47.9001 74.4369C56.2297 71.6812 58.4687 69.1656 58.547 68.2523C58.8862 60.0844 59.5647 42.0734 59.5647 35.3721C59.5647 28.6708 55.7548 25.3253 53.8498 24.4903L42.5766 21.8285L30.912 20.576L26.7461 19.8584C23.9278 21.1893 17.4624 24.8034 15.333 26.6823C13.2036 28.5612 12.7235 31.9014 12.7496 33.3366C12.3842 43.4094 11.8415 64.0874 12.5931 66.2168Z" fill="url(#paint8_radial_13_25)"/>
</mask>
<g mask="url(#mask3_13_25)">
<g id="Vector 80" filter="url(#filter11_f_13_25)">
<path d="M26.717 20.3827L26.3672 20.062L31.3531 20.0912L31.8196 20.9077L26.717 20.3827Z" fill="#A40C1D"/>
</g>
<g id="Vector 74" filter="url(#filter12_f_13_25)">
<path d="M13.3233 34.6206L19.8982 36.1881L19.2451 57.3494C19.1346 60.8997 18.982 67.963 19.2078 69.1465C19.2924 69.3469 19.3277 69.4553 19.2451 69.2799C19.2317 69.2514 19.2193 69.2065 19.2078 69.1465C19.007 68.6706 18.5283 67.6764 18.6917 68.7387C15.7599 67.5195 7.00901 69.9028 11.9032 66.1741C15.6306 63.3343 12.9316 36.8847 12.9316 36.667C12.9316 36.4928 13.1928 35.2302 13.3233 34.6206Z" fill="#771F1F"/>
</g>
<g id="Vector 66" filter="url(#filter13_f_13_25)">
<path d="M19.6762 67.2622C19.8913 69.8449 21.988 72.3759 23.1346 73.4438C23.2264 73.5292 23.2993 73.6317 23.3465 73.7478C23.6553 74.5075 24.7661 74.3878 24.9059 73.5798L29.7444 45.6239C29.7922 45.3478 29.934 45.0967 30.1459 44.9132L45.7797 31.3713C46.3437 30.8828 46.3377 30.006 45.7673 29.5251L39.0266 23.8437C38.6766 23.5487 38.1918 23.4751 37.7704 23.6536C34.4017 25.0803 28.1553 27.6955 25.4713 28.7063C22.6599 29.7651 20.9568 33.5843 20.4143 35.4892C20.3888 35.5787 20.3757 35.67 20.3726 35.763L19.8632 51.1855C19.7074 55.4228 19.4519 64.5703 19.6762 67.2622Z" fill="#950D17" fill-opacity="0.8"/>
</g>
<g id="Vector 62" filter="url(#filter14_f_13_25)">
<path d="M58.3395 38.1328C58.4011 29.7461 55.436 25.5938 53.9458 24.5659L60.4208 27.6493L60.0354 68.8121L57.4145 69.9683C57.6971 62.8509 58.2778 46.5194 58.3395 38.1328Z" fill="#83020B"/>
</g>
</g>
</g>
<path id="Vector 55" d="M62.1158 16.0757C56.0595 10.1612 45.7526 15.4251 41.3562 18.7963C41.1985 18.4021 41.5455 16.6199 44.1952 12.6454C51.4107 6.37616 63.7126 3.24149 67.3796 11.2851C70.3131 17.7199 63.9098 22.7195 60.3414 24.415C62.1749 23.0547 65.0966 19.4824 62.1158 16.0757Z" fill="#D01C27"/>
<g id="Mask group_5">
<mask id="mask4_13_25" style="mask-type:alpha" maskUnits="userSpaceOnUse" x="41" y="6" width="28" height="19">
<path id="Vector 69" d="M62.1158 16.0757C56.0595 10.1612 45.7526 15.4251 41.3562 18.7963C41.1985 18.4021 41.5455 16.6199 44.1952 12.6454C51.4107 6.37616 63.7126 3.24149 67.3796 11.2851C70.3131 17.7199 63.9098 22.7195 60.3414 24.415C62.1749 23.0547 65.0966 19.4824 62.1158 16.0757Z" fill="#D01C27"/>
</mask>
<g mask="url(#mask4_13_25)">
<g id="Vector 77" opacity="0.61" filter="url(#filter15_f_13_25)">
<path d="M64.7578 10.9412C63.8451 7.42957 59.6988 7.42794 57.7397 7.86609C56.1278 8.31239 56.0781 9.99891 53.251 11.8589C54.6993 11.5414 59.9716 12.8674 62.4267 13.57C63.3856 13.7188 65.1943 13.4013 64.7578 10.9412Z" fill="#FF9B9B"/>
</g>
<g id="Vector 78" opacity="0.4" filter="url(#filter16_f_13_25)">
<path d="M59.9308 11.9631C58.9441 10.9566 56.3301 11.1738 55.1464 11.4083C55.0444 11.5081 54.0778 11.635 53.8117 12.2279C55.4305 11.8185 61.1642 13.2213 59.9308 11.9631Z" fill="white"/>
</g>
<g id="Vector 75" filter="url(#filter17_f_13_25)">
<path d="M60.1133 23.7439C64.7576 22.2061 65.978 13.2253 66.0077 8.92708C67.6297 8.36124 70.9557 7.39711 71.284 8.06737C71.6943 8.90521 68.4995 24.9485 68.1349 25.3413C67.7704 25.734 56.8076 26.6157 55.8611 26.6509C54.9145 26.6861 54.3078 25.666 60.1133 23.7439Z" fill="#A00D1B"/>
</g>
<g id="Vector 76" filter="url(#filter18_f_13_25)">
<path d="M50.954 13.533C48.051 13.899 43.9949 16.3753 41.6265 17.839L41.6569 20.4616L61.7832 21.9253C62.4541 20.9495 63.0121 18.1348 61.9631 15.988C60.6518 13.3045 54.5828 13.0755 50.954 13.533Z" fill="#940612"/>
</g>
</g>
</g>
<g id="Vector 82" filter="url(#filter19_f_13_25)">
<path d="M9.64182 15.7801C9.34786 13.1809 10.0055 8.73807 14.0862 8.29027C12.3925 4.47975 7.84238 10.5228 9.64182 15.7801Z" fill="#87020A"/>
</g>
<path id="Vector 54" d="M30.5547 20.5357C29.4325 16.4898 30.745 12.3848 31.9386 10.7606C40.2443 9.98542 45.3548 13.0099 44.3581 13.1945C43.3614 13.3791 41.5355 18.0988 41.9243 20.2404C42.1262 21.3526 42.2811 22.1354 42.2196 22.4184C38.7989 22.1108 31.6768 21.3035 30.5547 20.5357Z" fill="url(#paint9_linear_13_25)"/>
<g id="Mask group_6">
<mask id="mask5_13_25" style="mask-type:alpha" maskUnits="userSpaceOnUse" x="30" y="10" width="15" height="13">
<path id="Vector 69_2" d="M30.5547 20.5357C29.4325 16.4898 30.745 12.3848 31.9386 10.7606C40.2443 9.98542 45.3548 13.0099 44.3581 13.1945C43.3614 13.3791 41.6371 18.0828 41.9243 20.2404C42.137 21.8384 42.2811 22.1354 42.2196 22.4184C38.7989 22.1108 31.6768 21.3035 30.5547 20.5357Z" fill="url(#paint10_linear_13_25)"/>
</mask>
<g mask="url(#mask5_13_25)">
<g id="Vector 70" filter="url(#filter20_f_13_25)">
<path d="M42.9096 20.0275C42.1886 20.8535 34.2658 19.1304 30.1414 18.6908C29.9684 18.6724 29.7945 18.7378 29.707 18.8882C28.8666 20.332 30.3356 23.297 31.3482 24.385C31.4524 24.4969 31.6045 24.5443 31.7565 24.5288L43.8912 23.2911C44.1967 23.2599 44.4153 22.9805 44.3607 22.6783C44.0993 21.232 43.5584 19.2842 42.9096 20.0275Z" fill="#AC0E1F"/>
</g>
<g id="Vector 71" opacity="0.57" filter="url(#filter21_f_13_25)">
<path d="M42.4346 20.8251C42.2436 20.1565 42.3901 19.5935 42.5228 18.8242C41.1168 19.1028 37.9888 19.4544 36.8745 19.4544C35.7603 19.4544 36.0552 19.5742 36.2542 19.9456C38.0449 20.3966 41.7343 20.9525 42.4346 20.8251Z" fill="white" fill-opacity="0.29"/>
</g>
<g id="Vector 72" filter="url(#filter22_f_13_25)">
<path d="M29.1209 15.1426C29.0652 15.8198 28.8295 16.3395 28.5489 17.0608C29.4844 17.0231 31.4963 17.1981 32.1805 17.3814C32.8647 17.5648 32.7146 17.4006 32.6886 17.0091C31.7057 16.2788 29.5839 15.1348 29.1209 15.1426Z" fill="white" fill-opacity="0.39"/>
</g>
<g id="Vector 73" filter="url(#filter23_f_13_25)">
<path d="M43.595 17.305C43.2633 15.9849 42.569 17.252 42.6965 15.7117C40.689 16.3515 37.0597 14.8436 35.4505 14.911C33.8413 14.9783 34.2772 15.1991 34.5955 15.9268C37.2193 16.7168 42.5942 17.6011 43.595 17.305Z" fill="white" fill-opacity="0.39"/>
</g>
</g>
</g>
<path id="Vector 58" d="M13.9268 7.90575C23.0257 7.59599 28.5915 13.5846 30.2371 16.6176C30.6243 15.5367 31.5245 12.8908 32.0279 10.9549C25.6392 -1.04796 12.8135 -1.67717 9.28045 4.90504C5.65055 12.0196 10.0065 16.4239 9.81286 15.7463C8.69969 13.3264 10.1517 7.76057 13.9268 7.90575Z" fill="#D01C27"/>
<g id="Mask group_7">
<mask id="mask6_13_25" style="mask-type:alpha" maskUnits="userSpaceOnUse" x="7" y="0" width="26" height="17">
<path id="Vector 80_2" d="M13.9268 7.90575C23.0257 7.59599 28.5915 13.5846 30.2371 16.6176C30.6243 15.5367 31.5245 12.8908 32.0279 10.9549C25.6392 -1.04796 12.8135 -1.67717 9.28045 4.90504C5.65055 12.0196 10.0065 16.4239 9.81286 15.7463C8.69969 13.3264 10.1517 7.76057 13.9268 7.90575Z" fill="#D01C27"/>
</mask>
<g mask="url(#mask6_13_25)">
<g id="Vector 81" filter="url(#filter24_f_13_25)">
<path d="M24.1712 10.2668C25.7553 9.01616 23.0247 4.04841 21.4614 1.72086L21.9825 1.40815C24.449 0.991289 29.5488 0.220108 30.2158 0.470232C31.0495 0.782886 36.6773 9.01612 36.7815 9.64143C36.8649 10.1417 32.1612 14.1576 29.7989 16.103C27.2629 14.6786 22.587 11.5174 24.1712 10.2668Z" fill="#A90A14"/>
</g>
<g id="Vector 83" filter="url(#filter25_f_13_25)">
<path d="M16.9943 1.70125C12.907 0.247027 10.0838 3.42076 9.18311 5.1894C12.1799 3.47003 11.8851 5.97535 14.8327 6.0736C17.7803 6.17186 21.2683 3.56816 16.9943 1.70125Z" fill="#FF8E96"/>
</g>
</g>
</g>
<g id="Vector 63" filter="url(#filter26_f_13_25)">
<path d="M49.0781 31.0151C49.5119 31.232 49.7878 31.6137 49.926 32.2771" stroke="white" stroke-width="0.269816" stroke-linecap="round"/>
</g>
<g id="Vector 64" filter="url(#filter27_f_13_25)">
<path d="M48.7583 30.9722C50.9721 29.9894 54.7583 28.2243 55.3026 28.2503" stroke="white" stroke-opacity="0.56" stroke-width="0.539631" stroke-linecap="round"/>
</g>
<g id="Vector 65" filter="url(#filter28_f_13_25)">
<path d="M51.7499 34.785C51.5188 33.7571 51.071 32.9089 50.6034 32.2719C50.131 31.6284 50.1295 30.6608 50.784 30.2038C51.6288 29.614 52.8664 28.785 54.531 27.7354C54.9096 27.4966 55.4017 27.4795 55.7114 27.8027C56.8416 28.982 57.5733 31.4518 57.921 33.1738C58.0279 33.7033 57.742 34.2248 57.248 34.4434C56.3894 34.8233 55.1255 35.3695 53.6728 35.9685C52.8499 36.3078 51.9452 35.6533 51.7499 34.785Z" fill="url(#paint11_linear_13_25)" fill-opacity="0.62"/>
</g>
<g id="Vector 67" filter="url(#filter29_f_13_25)">
<path d="M23.1089 29.0229C21.6457 29.6379 20.2852 31.6539 20.1709 32.73" stroke="url(#paint12_linear_13_25)" stroke-width="0.269816" stroke-linecap="round"/>
</g>
<g id="Vector 68" filter="url(#filter30_f_13_25)">
<path d="M20.3381 34.8154C19.9528 35.0402 16.4951 33.5349 14.2611 32.4906C14.0225 32.379 13.9004 32.1106 13.9771 31.8587C15.277 27.5944 17.1874 26.0675 18.3296 25.942C18.3875 25.9356 18.4449 25.9428 18.5008 25.9592C19.4528 26.2374 21.5725 27.0139 23.6268 28.221C23.968 28.4214 23.9637 28.9099 23.6435 29.1424C20.0523 31.7493 20.8209 34.5338 20.3381 34.8154Z" fill="url(#paint13_linear_13_25)"/>
</g>
<g id="Vector 84" filter="url(#filter31_f_13_25)">
<path d="M18.5613 7.07106C16.7952 6.11445 13.737 6.50888 12.4287 6.82566C13.2668 6.86657 15.1883 6.99744 16.1695 7.19368C17.396 7.43898 17.8253 7.4696 18.5613 7.07106Z" fill="white" fill-opacity="0.5"/>
</g>
<g id="Vector 85" opacity="0.32" filter="url(#filter32_f_13_25)">
<path d="M61.008 23.7191C55.2976 26.0064 46.0484 23.0684 42.1375 21.3135C42.0718 21.3989 41.9995 21.6487 42.2361 21.9642C42.5319 22.3585 49.5122 24.1332 50.9319 24.3107C59.1545 25.8093 60.7714 24.2121 61.008 23.7191Z" fill="white"/>
</g>
</g>
<defs>
<filter id="filter0_f_13_25" x="-2.44039" y="19.3746" width="7.76261" height="20.1293" filterUnits="userSpaceOnUse" color-interpolation-filters="sRGB">
<feFlood flood-opacity="0" result="BackgroundImageFix"/>
<feBlend mode="normal" in="SourceGraphic" in2="BackgroundImageFix" result="shape"/>
<feGaussianBlur stdDeviation="0.674539" result="effect1_foregroundBlur_13_25"/>
</filter>
<filter id="filter1_f_13_25" x="-4.27812" y="28.6477" width="78.2818" height="58.1363" filterUnits="userSpaceOnUse" color-interpolation-filters="sRGB">
<feFlood flood-opacity="0" result="BackgroundImageFix"/>
<feBlend mode="normal" in="SourceGraphic" in2="BackgroundImageFix" result="shape"/>
<feGaussianBlur stdDeviation="0.971336" result="effect1_foregroundBlur_13_25"/>
</filter>
<filter id="filter2_f_13_25" x="-3.67276" y="26.5182" width="86.2684" height="66.1229" filterUnits="userSpaceOnUse" color-interpolation-filters="sRGB">
<feFlood flood-opacity="0" result="BackgroundImageFix"/>
<feBlend mode="normal" in="SourceGraphic" in2="BackgroundImageFix" result="shape"/>
<feGaussianBlur stdDeviation="2.96797" result="effect1_foregroundBlur_13_25"/>
</filter>
<filter id="filter3_f_13_25" x="34.2125" y="27.1832" width="43.3914" height="53.6185" filterUnits="userSpaceOnUse" color-interpolation-filters="sRGB">
<feFlood flood-opacity="0" result="BackgroundImageFix"/>
<feBlend mode="normal" in="SourceGraphic" in2="BackgroundImageFix" result="shape"/>
<feGaussianBlur stdDeviation="1.34908" result="effect1_foregroundBlur_13_25"/>
</filter>
<filter id="filter4_f_13_25" x="24.1402" y="46.6695" width="22.0203" height="11.0511" filterUnits="userSpaceOnUse" color-interpolation-filters="sRGB">
<feFlood flood-opacity="0" result="BackgroundImageFix"/>
<feBlend mode="normal" in="SourceGraphic" in2="BackgroundImageFix" result="shape"/>
<feGaussianBlur stdDeviation="1.34908" result="effect1_foregroundBlur_13_25"/>
</filter>
<filter id="filter5_f_13_25" x="30.1438" y="42.6057" width="8.95501" height="37.2045" filterUnits="userSpaceOnUse" color-interpolation-filters="sRGB">
<feFlood flood-opacity="0" result="BackgroundImageFix"/>
<feBlend mode="normal" in="SourceGraphic" in2="BackgroundImageFix" result="shape"/>
<feGaussianBlur stdDeviation="0.701521" result="effect1_foregroundBlur_13_25"/>
</filter>
<filter id="filter6_f_13_25" x="2.19348" y="23.1329" width="35.363" height="21.4036" filterUnits="userSpaceOnUse" color-interpolation-filters="sRGB">
<feFlood flood-opacity="0" result="BackgroundImageFix"/>
<feBlend mode="normal" in="SourceGraphic" in2="BackgroundImageFix" result="shape"/>
<feGaussianBlur stdDeviation="0.404724" result="effect1_foregroundBlur_13_25"/>
</filter>
<filter id="filter7_f_13_25" x="34.724" y="26.2987" width="37.9862" height="18.6429" filterUnits="userSpaceOnUse" color-interpolation-filters="sRGB">
<feFlood flood-opacity="0" result="BackgroundImageFix"/>
<feBlend mode="normal" in="SourceGraphic" in2="BackgroundImageFix" result="shape"/>
<feGaussianBlur stdDeviation="0.539631" result="effect1_foregroundBlur_13_25"/>
</filter>
<filter id="filter8_f_13_25" x="50.1856" y="34.1006" width="10.0336" height="36.3959" filterUnits="userSpaceOnUse" color-interpolation-filters="sRGB">
<feFlood flood-opacity="0" result="BackgroundImageFix"/>
<feBlend mode="normal" in="SourceGraphic" in2="BackgroundImageFix" result="shape"/>
<feGaussianBlur stdDeviation="0.674539" result="effect1_foregroundBlur_13_25"/>
</filter>
<filter id="filter9_f_13_25" x="40.5102" y="18.165" width="14.4714" height="7.22721" filterUnits="userSpaceOnUse" color-interpolation-filters="sRGB">
<feFlood flood-opacity="0" result="BackgroundImageFix"/>
<feBlend mode="normal" in="SourceGraphic" in2="BackgroundImageFix" result="shape"/>
<feGaussianBlur stdDeviation="0.269816" result="effect1_foregroundBlur_13_25"/>
</filter>
<filter id="filter10_d_13_25" x="1.42319" y="20.062" width="68.9344" height="75.7801" filterUnits="userSpaceOnUse" color-interpolation-filters="sRGB">
<feFlood flood-opacity="0" result="BackgroundImageFix"/>
<feColorMatrix in="SourceAlpha" type="matrix" values="0 0 0 0 0 0 0 0 0 0 0 0 0 0 0 0 0 0 127 0" result="hardAlpha"/>
<feOffset dy="10.7926"/>
<feGaussianBlur stdDeviation="5.39631"/>
<feComposite in2="hardAlpha" operator="out"/>
<feColorMatrix type="matrix" values="0 0 0 0 0 0 0 0 0 0 0 0 0 0 0 0 0 0 0.25 0"/>
<feBlend mode="normal" in2="BackgroundImageFix" result="effect1_dropShadow_13_25"/>
<feBlend mode="normal" in="SourceGraphic" in2="effect1_dropShadow_13_25" result="shape"/>
</filter>
<filter id="filter11_f_13_25" x="26.0974" y="19.7922" width="5.99227" height="1.38533" filterUnits="userSpaceOnUse" color-interpolation-filters="sRGB">
<feFlood flood-opacity="0" result="BackgroundImageFix"/>
<feBlend mode="normal" in="SourceGraphic" in2="BackgroundImageFix" result="shape"/>
<feGaussianBlur stdDeviation="0.134908" result="effect1_foregroundBlur_13_25"/>
</filter>
<filter id="filter12_f_13_25" x="4.7787" y="28.9545" width="20.7854" height="46.0798" filterUnits="userSpaceOnUse" color-interpolation-filters="sRGB">
<feFlood flood-opacity="0" result="BackgroundImageFix"/>
<feBlend mode="normal" in="SourceGraphic" in2="BackgroundImageFix" result="shape"/>
<feGaussianBlur stdDeviation="2.83306" result="effect1_foregroundBlur_13_25"/>
</filter>
<filter id="filter13_f_13_25" x="18.2388" y="22.2085" width="29.309" height="53.3974" filterUnits="userSpaceOnUse" color-interpolation-filters="sRGB">
<feFlood flood-opacity="0" result="BackgroundImageFix"/>
<feBlend mode="normal" in="SourceGraphic" in2="BackgroundImageFix" result="shape"/>
<feGaussianBlur stdDeviation="0.674539" result="effect1_foregroundBlur_13_25"/>
</filter>
<filter id="filter14_f_13_25" x="52.5967" y="23.2168" width="9.17325" height="48.1005" filterUnits="userSpaceOnUse" color-interpolation-filters="sRGB">
<feFlood flood-opacity="0" result="BackgroundImageFix"/>
<feBlend mode="normal" in="SourceGraphic" in2="BackgroundImageFix" result="shape"/>
<feGaussianBlur stdDeviation="0.674539" result="effect1_foregroundBlur_13_25"/>
</filter>
<filter id="filter15_f_13_25" x="51.3623" y="5.77877" width="15.3512" height="9.71053" filterUnits="userSpaceOnUse" color-interpolation-filters="sRGB">
<feFlood flood-opacity="0" result="BackgroundImageFix"/>
<feBlend mode="normal" in="SourceGraphic" in2="BackgroundImageFix" result="shape"/>
<feGaussianBlur stdDeviation="0.944355" result="effect1_foregroundBlur_13_25"/>
</filter>
<filter id="filter16_f_13_25" x="53.0021" y="10.402" width="7.9104" height="2.90747" filterUnits="userSpaceOnUse" color-interpolation-filters="sRGB">
<feFlood flood-opacity="0" result="BackgroundImageFix"/>
<feBlend mode="normal" in="SourceGraphic" in2="BackgroundImageFix" result="shape"/>
<feGaussianBlur stdDeviation="0.404724" result="effect1_foregroundBlur_13_25"/>
</filter>
<filter id="filter17_f_13_25" x="54.1727" y="6.7596" width="18.2269" height="20.9715" filterUnits="userSpaceOnUse" color-interpolation-filters="sRGB">
<feFlood flood-opacity="0" result="BackgroundImageFix"/>
<feBlend mode="normal" in="SourceGraphic" in2="BackgroundImageFix" result="shape"/>
<feGaussianBlur stdDeviation="0.539631" result="effect1_foregroundBlur_13_25"/>
</filter>
<filter id="filter18_f_13_25" x="41.0868" y="12.8066" width="21.9992" height="9.65836" filterUnits="userSpaceOnUse" color-interpolation-filters="sRGB">
<feFlood flood-opacity="0" result="BackgroundImageFix"/>
<feBlend mode="normal" in="SourceGraphic" in2="BackgroundImageFix" result="shape"/>
<feGaussianBlur stdDeviation="0.269816" result="effect1_foregroundBlur_13_25"/>
</filter>
<filter id="filter19_f_13_25" x="8.6884" y="6.55314" width="5.93717" height="9.76676" filterUnits="userSpaceOnUse" color-interpolation-filters="sRGB">
<feFlood flood-opacity="0" result="BackgroundImageFix"/>
<feBlend mode="normal" in="SourceGraphic" in2="BackgroundImageFix" result="shape"/>
<feGaussianBlur stdDeviation="0.269816" result="effect1_foregroundBlur_13_25"/>
</filter>
<filter id="filter20_f_13_25" x="28.1084" y="17.3389" width="17.6098" height="8.54191" filterUnits="userSpaceOnUse" color-interpolation-filters="sRGB">
<feFlood flood-opacity="0" result="BackgroundImageFix"/>
<feBlend mode="normal" in="SourceGraphic" in2="BackgroundImageFix" result="shape"/>
<feGaussianBlur stdDeviation="0.674539" result="effect1_foregroundBlur_13_25"/>
</filter>
<filter id="filter21_f_13_25" x="35.5243" y="18.2846" width="7.53825" height="3.09879" filterUnits="userSpaceOnUse" color-interpolation-filters="sRGB">
<feFlood flood-opacity="0" result="BackgroundImageFix"/>
<feBlend mode="normal" in="SourceGraphic" in2="BackgroundImageFix" result="shape"/>
<feGaussianBlur stdDeviation="0.269816" result="effect1_foregroundBlur_13_25"/>
</filter>
<filter id="filter22_f_13_25" x="28.0092" y="14.6029" width="5.25114" height="3.39323" filterUnits="userSpaceOnUse" color-interpolation-filters="sRGB">
<feFlood flood-opacity="0" result="BackgroundImageFix"/>
<feBlend mode="normal" in="SourceGraphic" in2="BackgroundImageFix" result="shape"/>
<feGaussianBlur stdDeviation="0.269816" result="effect1_foregroundBlur_13_25"/>
</filter>
<filter id="filter23_f_13_25" x="33.2118" y="13.8294" width="11.4622" height="4.61312" filterUnits="userSpaceOnUse" color-interpolation-filters="sRGB">
<feFlood flood-opacity="0" result="BackgroundImageFix"/>
<feBlend mode="normal" in="SourceGraphic" in2="BackgroundImageFix" result="shape"/>
<feGaussianBlur stdDeviation="0.539631" result="effect1_foregroundBlur_13_25"/>
</filter>
<filter id="filter24_f_13_25" x="20.3822" y="-0.657876" width="17.4798" height="17.8402" filterUnits="userSpaceOnUse" color-interpolation-filters="sRGB">
<feFlood flood-opacity="0" result="BackgroundImageFix"/>
<feBlend mode="normal" in="SourceGraphic" in2="BackgroundImageFix" result="shape"/>
<feGaussianBlur stdDeviation="0.539631" result="effect1_foregroundBlur_13_25"/>
</filter>
<filter id="filter25_f_13_25" x="6.48495" y="-1.36759" width="15.202" height="10.1419" filterUnits="userSpaceOnUse" color-interpolation-filters="sRGB">
<feFlood flood-opacity="0" result="BackgroundImageFix"/>
<feBlend mode="normal" in="SourceGraphic" in2="BackgroundImageFix" result="shape"/>
<feGaussianBlur stdDeviation="1.34908" result="effect1_foregroundBlur_13_25"/>
</filter>
<filter id="filter26_f_13_25" x="48.4037" y="30.3407" width="2.19694" height="2.611" filterUnits="userSpaceOnUse" color-interpolation-filters="sRGB">
<feFlood flood-opacity="0" result="BackgroundImageFix"/>
<feBlend mode="normal" in="SourceGraphic" in2="BackgroundImageFix" result="shape"/>
<feGaussianBlur stdDeviation="0.269816" result="effect1_foregroundBlur_13_25"/>
</filter>
<filter id="filter27_f_13_25" x="47.409" y="26.9007" width="9.24251" height="5.42073" filterUnits="userSpaceOnUse" color-interpolation-filters="sRGB">
<feFlood flood-opacity="0" result="BackgroundImageFix"/>
<feBlend mode="normal" in="SourceGraphic" in2="BackgroundImageFix" result="shape"/>
<feGaussianBlur stdDeviation="0.539631" result="effect1_foregroundBlur_13_25"/>
</filter>
<filter id="filter28_f_13_25" x="48.3798" y="25.6694" width="11.4522" height="12.2789" filterUnits="userSpaceOnUse" color-interpolation-filters="sRGB">
<feFlood flood-opacity="0" result="BackgroundImageFix"/>
<feBlend mode="normal" in="SourceGraphic" in2="BackgroundImageFix" result="shape"/>
<feGaussianBlur stdDeviation="0.944355" result="effect1_foregroundBlur_13_25"/>
</filter>
<filter id="filter29_f_13_25" x="19.6314" y="28.4835" width="4.01697" height="4.78601" filterUnits="userSpaceOnUse" color-interpolation-filters="sRGB">
<feFlood flood-opacity="0" result="BackgroundImageFix"/>
<feBlend mode="normal" in="SourceGraphic" in2="BackgroundImageFix" result="shape"/>
<feGaussianBlur stdDeviation="0.202362" result="effect1_foregroundBlur_13_25"/>
</filter>
<filter id="filter30_f_13_25" x="11.2559" y="23.2418" width="15.3255" height="14.2943" filterUnits="userSpaceOnUse" color-interpolation-filters="sRGB">
<feFlood flood-opacity="0" result="BackgroundImageFix"/>
<feBlend mode="normal" in="SourceGraphic" in2="BackgroundImageFix" result="shape"/>
<feGaussianBlur stdDeviation="1.34908" result="effect1_foregroundBlur_13_25"/>
</filter>
<filter id="filter31_f_13_25" x="11.8891" y="5.92961" width="7.21159" height="1.98502" filterUnits="userSpaceOnUse" color-interpolation-filters="sRGB">
<feFlood flood-opacity="0" result="BackgroundImageFix"/>
<feBlend mode="normal" in="SourceGraphic" in2="BackgroundImageFix" result="shape"/>
<feGaussianBlur stdDeviation="0.269816" result="effect1_foregroundBlur_13_25"/>
</filter>
<filter id="filter32_f_13_25" x="41.7495" y="20.9897" width="19.5821" height="4.27109" filterUnits="userSpaceOnUse" color-interpolation-filters="sRGB">
<feFlood flood-opacity="0" result="BackgroundImageFix"/>
<feBlend mode="normal" in="SourceGraphic" in2="BackgroundImageFix" result="shape"/>
<feGaussianBlur stdDeviation="0.161889" result="effect1_foregroundBlur_13_25"/>
</filter>
<linearGradient id="paint0_linear_13_25" x1="37.1377" y1="64.0027" x2="35.6663" y2="80.7734" gradientUnits="userSpaceOnUse">
<stop stop-color="white"/>
<stop offset="1" stop-color="#F7F7F7"/>
</linearGradient>
<linearGradient id="paint1_linear_13_25" x1="41.2001" y1="47.5727" x2="67.9464" y2="60.9458" gradientUnits="userSpaceOnUse">
<stop stop-color="#C5C5C5" stop-opacity="0.62"/>
<stop offset="1" stop-color="#C2C2C2"/>
</linearGradient>
<linearGradient id="paint2_linear_13_25" x1="79.1501" y1="37.8621" x2="39.0128" y2="48.1134" gradientUnits="userSpaceOnUse">
<stop stop-color="#C8C8C8"/>
<stop offset="1" stop-color="#F3F3F3"/>
</linearGradient>
<linearGradient id="paint3_linear_13_25" x1="37.1373" y1="39.7531" x2="50.1929" y2="-28.5673" gradientUnits="userSpaceOnUse">
<stop stop-color="#FBFBFB"/>
<stop offset="1" stop-color="#C5C5C5"/>
</linearGradient>
<radialGradient id="paint4_radial_13_25" cx="0" cy="0" r="1" gradientUnits="userSpaceOnUse" gradientTransform="translate(34.1109 18.2808) rotate(90.8814) scale(63.9448 55.5989)">
<stop offset="0.0212033" stop-color="#FE2234"/>
<stop offset="1" stop-color="#920E1A"/>
</radialGradient>
<linearGradient id="paint5_linear_13_25" x1="52.5595" y1="10.8979" x2="52.5595" y2="20.5109" gradientUnits="userSpaceOnUse">
<stop stop-color="#F04452"/>
<stop offset="1" stop-color="#D82634"/>
</linearGradient>
<linearGradient id="paint6_linear_13_25" x1="20.6116" y1="11.3515" x2="20.1371" y2="20.7312" gradientUnits="userSpaceOnUse">
<stop stop-color="#B71E26"/>
<stop offset="1" stop-color="#F82732"/>
</linearGradient>
<linearGradient id="paint7_linear_13_25" x1="51.9179" y1="17.0859" x2="52.4148" y2="24.9322" gradientUnits="userSpaceOnUse">
<stop stop-color="#B71E26"/>
<stop offset="1" stop-color="#F72030"/>
</linearGradient>
<radialGradient id="paint8_radial_13_25" cx="0" cy="0" r="1" gradientUnits="userSpaceOnUse" gradientTransform="translate(34.1109 18.2802) rotate(90.8814) scale(63.9448 55.5989)">
<stop offset="0.0212033" stop-color="#FE2234"/>
<stop offset="1" stop-color="#920E1A"/>
</radialGradient>
<linearGradient id="paint9_linear_13_25" x1="38.604" y1="10.6338" x2="36.2915" y2="22.4184" gradientUnits="userSpaceOnUse">
<stop stop-color="#FD2334"/>
<stop offset="1" stop-color="#BE081E"/>
</linearGradient>
<linearGradient id="paint10_linear_13_25" x1="38.604" y1="10.6338" x2="36.2915" y2="22.4184" gradientUnits="userSpaceOnUse">
<stop stop-color="#FD2334"/>
<stop offset="1" stop-color="#BE081E"/>
</linearGradient>
<linearGradient id="paint11_linear_13_25" x1="51.448" y1="38.9874" x2="50.1398" y2="25.4545" gradientUnits="userSpaceOnUse">
<stop stop-color="#FDA0A0"/>
<stop offset="1" stop-color="#FF7E7E" stop-opacity="0"/>
</linearGradient>
<linearGradient id="paint12_linear_13_25" x1="23.8188" y1="28.5891" x2="19.7962" y2="33.361" gradientUnits="userSpaceOnUse">
<stop stop-color="white"/>
<stop offset="0.1875" stop-color="white" stop-opacity="0.34"/>
<stop offset="0.458333" stop-color="white" stop-opacity="0"/>
<stop offset="0.682292" stop-color="white" stop-opacity="0.3"/>
<stop offset="1" stop-color="white"/>
</linearGradient>
<linearGradient id="paint13_linear_13_25" x1="15.8553" y1="34.8381" x2="22.3875" y2="27.472" gradientUnits="userSpaceOnUse">
<stop stop-color="#FF6464"/>
<stop offset="0.0001" stop-color="#FF8D8D"/>
<stop offset="1" stop-color="#FF6C6C" stop-opacity="0"/>
</linearGradient>
</defs>
</svg>
